<svg xmlns="http://www.w3.org/2000/svg" xmlns:xlink="http://www.w3.org/1999/xlink" viewBox="0 0 915 707.08"><defs><linearGradient id="a9bfa723-1bb2-4fe6-ac26-082a060cadf2" y1="353.54" x2="915" y2="353.54" gradientUnits="userSpaceOnUse"><stop offset="0" stop-color="#f2913d"/><stop offset="0.15" stop-color="#f28345"/><stop offset="0.4" stop-color="#f2724f"/><stop offset="0.67" stop-color="#f26755"/><stop offset="1" stop-color="#f26457"/></linearGradient><linearGradient id="b210a2df-d708-49e5-a7d9-c4af6f403bee" x1="58.66" y1="300.59" x2="379.77" y2="300.59" xlink:href="#a9bfa723-1bb2-4fe6-ac26-082a060cadf2"/><linearGradient id="aae84962-e9f7-48d2-807f-b9d6af02069f" x1="237.05" y1="250.74" x2="856.31" y2="250.74" xlink:href="#a9bfa723-1bb2-4fe6-ac26-082a060cadf2"/><linearGradient id="a13e3519-570d-4c2d-9a31-70042eeb03e2" x1="414.65" y1="556.76" x2="503.34" y2="556.76" xlink:href="#a9bfa723-1bb2-4fe6-ac26-082a060cadf2"/><linearGradient id="b83d5d3b-61ac-4693-bb24-acdeeb147ac1" x1="528.49" y1="556.58" x2="618.48" y2="556.58" xlink:href="#a9bfa723-1bb2-4fe6-ac26-082a060cadf2"/><linearGradient id="ad1dab0a-0256-4785-9df5-06a53773f212" x1="638.27" y1="541.8" x2="702.4" y2="541.8" xlink:href="#a9bfa723-1bb2-4fe6-ac26-082a060cadf2"/><linearGradient id="a51f6589-eea8-4bc5-a63c-fec0f2fe27f1" x1="719.33" y1="556.82" x2="805.03" y2="556.82" xlink:href="#a9bfa723-1bb2-4fe6-ac26-082a060cadf2"/></defs><title>Recurso 1</title><g id="a0757008-567e-401f-963c-fcbc23b6ca5e" data-name="Capa 2"><g id="aa325b49-4cc7-4ee1-afe8-1287f9f25340" data-name="Capa 1"><path d="M905.76,172.28a58.4,58.4,0,0,0-49.45-27.12H840.66a58.42,58.42,0,0,0-11.42,1.13c-21.27-21.9-50.47-33.39-85.35-33.39-30.27,0-58.42,7.31-83.46,21.47l9.36-43.94a58.65,58.65,0,0,0-65.23-70.35l-72.34,9.77a58.81,58.81,0,0,0-49.5,45.88l-9,42.19a57.64,57.64,0,0,0-8.41-.62H394.92A58.66,58.66,0,0,0,369.75,123a58.66,58.66,0,0,0-25.17-5.68h-47.2l9.73-45.36A58.66,58.66,0,0,0,254.26,1.15c-7-.54-14.95-1.15-24-1.15C178.58,0,123.63,18.33,79.45,50.29,29,86.82,0,136.18,0,185.73c0,15.42,2.62,38.19,15.08,59.14C24,259.9,40.67,278,71,286.65L42.36,419.74a58.66,58.66,0,0,0,57.35,71,58.08,58.08,0,0,0,7.16-.44c.58,0,2.69,0,4.08,0,25.06,0,53.82,22.89,84.26,47.13,37.57,29.91,80.14,63.81,133.73,63.81a92.25,92.25,0,0,0,27.27-4.09C357,615.82,360,631.9,365.27,646,379.69,684.19,414.73,707,459,707c20.85,0,39.11-4.46,54.48-13.27,13.71,8.49,29.95,12.91,47.8,12.91a87.15,87.15,0,0,0,19.16-2.11,59,59,0,0,0,6.23.33h31.82A58.1,58.1,0,0,0,643,699.45c11.11,4.36,23.81,6.56,37.94,6.56H702.4a58.43,58.43,0,0,0,23.26-4.81,112.27,112.27,0,0,0,36.82,5.88c39.52,0,62.95-16.7,75.64-30.71,17-18.72,25.57-43.52,25.57-73.72a120.79,120.79,0,0,0-10-48.19,58.59,58.59,0,0,0,6.9-27.62v-9.78c0-32.75-7.46-57.88-22.82-76.82a87.54,87.54,0,0,0-24.63-20.88L815,417c23.93-30.73,40-70.84,46.67-116.41,25.53-24.09,39.87-54.93,47.84-72.06A58.4,58.4,0,0,0,905.76,172.28ZM891.15,220c-8.35,18-22.64,48.68-48.56,70.49-5.5,45.19-20.42,84.35-43.57,114.09A159.94,159.94,0,0,1,776.79,428c23.14,3.62,37.22,15.1,45.27,25,12.32,15.19,18.3,36.15,18.3,64.08v9.78a38.3,38.3,0,0,1-10,25.89,102.54,102.54,0,0,1,13.13,49.92c0,25-6.84,45.26-20.32,60.14-9.95,11-28.55,24.06-60.66,24.06-15.74,0-28.23-3.28-38.09-8a38.26,38.26,0,0,1-22,6.94H680.94c-15.59,0-28.62-3.11-39-9.26a38.23,38.23,0,0,1-23.51,8.07H586.66a39.13,39.13,0,0,1-7.31-.69,65.89,65.89,0,0,1-18.08,2.48c-18.93,0-35.2-6.2-47.25-17.72-14,12-32.52,18.08-55,18.08-36,0-63.31-17.44-74.8-47.85-5.38-14.37-8-31.41-8-52.21v-23A74.16,74.16,0,0,1,328.94,581c-46.52,0-84.45-30.21-121.13-59.41C174.52,495,143.08,470,111,470a58,58,0,0,0-6.48.19A38.43,38.43,0,0,1,62.14,424l33-153.24c-67.19-7.27-74.86-61-74.86-85,0-43,25.9-86.37,71.07-119,40.81-29.52,91.44-46.45,138.91-46.45,8.32,0,15.85.58,22.5,1.09a38.42,38.42,0,0,1,34.63,46.37l-15,69.92c.62,0,1.23-.08,1.86-.08h70.38a38.42,38.42,0,0,1,25.17,9.39,38.39,38.39,0,0,1,25.17-9.39H465.3a38.4,38.4,0,0,1,23.23,7.81L502.5,80A38.42,38.42,0,0,1,534.93,49.9l72.34-9.78a38.84,38.84,0,0,1,5.15-.34A38.42,38.42,0,0,1,650,86.21L628.62,186.63c30.06-34.76,70-53.5,115.27-53.5,34.32,0,61.41,13.06,78.84,36.7a38.35,38.35,0,0,1,17.93-4.44h15.65A38.42,38.42,0,0,1,891.15,220Z" style="fill:url(#a9bfa723-1bb2-4fe6-ac26-082a060cadf2)"/><path d="M174.49,410.56,249.76,59.64c-6.35-.49-12.71-1-19.55-1-81.62,0-171.55,62.07-171.55,127.07,0,35.19,18.57,47.41,52.29,47.41-.48-4.4-6.84-8.31-6.84-33.23,0-52.3,25.91-89,68.43-106.55L99.71,432.07a86.28,86.28,0,0,1,11.24-.49c86.51,0,148.1,110.94,218,110.94,26.39,0,45.94-29.81,50.83-76.73a105.18,105.18,0,0,1-41.06,7.82C276.64,473.61,225.32,421.8,174.49,410.56Z" style="fill:url(#b210a2df-d708-49e5-a7d9-c4af6f403bee)"/><path d="M840.67,203.82c-5.38,9.28-17.6,30.3-34.71,33.72-2.93-43.5-23.46-66-62.07-66-100.68,0-132.45,117.3-132.45,173.51,0,1.32,0,2.6.07,3.88-8.93,16-22.64,26.91-37.22,26.91-13.68,0-20-4.4-20-18.08a67.64,67.64,0,0,1,2-15.64L612.42,78.21,540.08,88l-52.3,244.87v0c-7.33,24.42-20.53,43-39.58,43-13.69,0-20-4.4-20-18.08a68.11,68.11,0,0,1,1.95-15.64L465.3,176H394.92L361.69,332.85c-7.33,24.44-20,43-39.1,43-10.76,0-14.67-8.8-14.67-20a68.46,68.46,0,0,1,1.47-13.68L344.58,176H274.2L241,332.85c-2.44,11.73-3.91,22.48-3.91,31.77,0,41.05,23,58.65,52.3,58.65,20.53,0,47.9-6.35,72.34-46.43,2.93,30.3,20.52,46.43,48.38,46.43,19.86,0,49.67-6.09,75.08-43,5.19,29.92,25.73,43,51,43,20.21,0,53.33-6.31,80.24-45,10.78,31.3,38.23,44.07,73.23,44.07,61.58,0,110.46-59.14,116.32-153,25.91-14.17,40.57-44.48,50.35-65.49Zm-76.25,72.82c-7.33,57.68-31.28,101.66-55.23,101.66-18.57,0-24.93-7.33-24.93-39.59,0-47.89,28.84-137.34,63.54-137.34,12.22,0,17.6,7.34,18.57,27.86-8.3,3.91-13.68,12.22-13.68,25.42C752.69,266.87,756.6,273.71,764.42,276.64Z" style="fill:url(#aae84962-e9f7-48d2-807f-b9d6af02069f)"/><path d="M459,648.3q-30.15,0-38.86-23-5.47-14.67-5.48-38.62V520q0-54.82,45.65-54.83,24.33,0,33.68,14.43t9.36,41V558.9H446.48v35.17q0,18.58,3.22,23.66a10.67,10.67,0,0,0,9.65,5.07c4.29,0,7.07-1,8.34-3a24.45,24.45,0,0,0,3.7-10.73q.48-5.49.48-15V578.33H503.1v9.54q0,24.32-3.82,34.93t-8.82,15.37Q480,648.31,459,648.3ZM446.36,540.43h25.51V517.54q0-14.65-2.33-21t-9.47-6.37H460q-12.4,0-13.35,18.95-.24,3.57-.24,9.3Z" style="fill:url(#a13e3519-570d-4c2d-9a31-70042eeb03e2)"/><path d="M561.27,648q-17.52,0-25-12.58t-7.74-36.18V587.75q0-22.89,12.39-34.69,8-7.74,27.06-15c2.31-.87,5.5-2.06,9.6-3.57s7-2.58,8.64-3.22V515.63q0-14.53-2.09-19.72t-9.53-5.19q-7.45,0-10,5.48t-2.5,18.48v8H530.87V517.3q0-25.38,9.48-38.74T574,465.21q24.13,0,34.33,13.35t10.19,40.05V646.16H586.66V628.4a28,28,0,0,1-9.12,13.88A24.44,24.44,0,0,1,561.27,648Zm24.91-98.82q-15,6.68-20.26,12.63t-5.25,18.48v19.19q0,12.52,2.62,17.94a8.85,8.85,0,0,0,8.53,5.43,12.63,12.63,0,0,0,9.65-4,17.88,17.88,0,0,0,4.71-9Z" style="fill:url(#b83d5d3b-61ac-4693-bb24-acdeeb147ac1)"/><path d="M680.94,647.35q-16.68,0-22.41-6.38t-5.72-22.11V493.94H638.27V471.05h14.54v-34.8H684.4v34.8h17.4v22.89H684.4V613.38q0,6.32,3.28,8.1t14.72,1.79v24.08Z" style="fill:url(#ad1dab0a-0256-4785-9df5-06a53773f212)"/><path d="M719.33,509.08q0-43.86,42.19-43.87,21,0,30.7,12t9.71,39.87v9.78H773.68V515q0-12.16-2.74-18.06a9.39,9.39,0,0,0-9.12-5.9q-6.37,0-9.42,3.69t-3,12.64q0,14.19,12.64,26.34l16.93,15.38Q805,573.45,805,602.65q0,22.89-10.37,34.33t-32.18,11.44q-21.83,0-32.19-12.45t-10.37-40V584.41H749.6v14.43q0,23.83,12.16,23.84,6.43,0,9.3-4.24t2.86-14.36q0-17.88-16.45-33.14-.48-.47-7.69-6.91t-8.4-7.63Q719.32,536.26,719.33,509.08Z" style="fill:url(#a51f6589-eea8-4bc5-a63c-fec0f2fe27f1)"/></g></g></svg>